<svg aria-hidden="true" style="position: absolute; width: 0; height: 0; overflow: hidden;" version="1.1" xmlns="http://www.w3.org/2000/svg" xmlns:xlink="http://www.w3.org/1999/xlink">
<defs>
<symbol id="icon-install" viewBox="0 0 32 32">
<path d="M10.667 28v-2.667h-5.333q-1.1 0-1.883-0.783t-0.783-1.883v-16q0-1.1 0.783-1.883t1.883-0.783h10.667v2.667h-10.667v16h21.333v-4h2.667v4q0 1.1-0.783 1.883t-1.883 0.783h-5.333v2.667h-10.667zM22.667 18.667l-6.667-6.667 1.867-1.867 3.467 3.433v-9.567h2.667v9.567l3.467-3.433 1.867 1.867-6.667 6.667z"></path>
</symbol>
<symbol id="icon-settings" viewBox="0 0 32 32">
<path d="M12.333 29.333l-0.533-4.267q-0.433-0.167-0.817-0.4t-0.75-0.5l-3.967 1.667-3.667-6.333 3.433-2.6q-0.033-0.233-0.033-0.45v-0.9q0-0.217 0.033-0.45l-3.433-2.6 3.667-6.333 3.967 1.667q0.367-0.267 0.767-0.5t0.8-0.4l0.533-4.267h7.333l0.533 4.267q0.433 0.167 0.817 0.4t0.75 0.5l3.967-1.667 3.667 6.333-3.433 2.6q0.033 0.233 0.033 0.45v0.9q0 0.217-0.067 0.45l3.433 2.6-3.667 6.333-3.933-1.667q-0.367 0.267-0.767 0.5t-0.8 0.4l-0.533 4.267h-7.333zM14.667 26.667h2.633l0.467-3.533q1.033-0.267 1.917-0.783t1.617-1.25l3.3 1.367 1.3-2.267-2.867-2.167q0.167-0.467 0.233-0.983t0.067-1.050-0.067-1.050-0.233-0.983l2.867-2.167-1.3-2.267-3.3 1.4q-0.733-0.767-1.617-1.283t-1.917-0.783l-0.433-3.533h-2.633l-0.467 3.533q-1.033 0.267-1.917 0.783t-1.617 1.25l-3.3-1.367-1.3 2.267 2.867 2.133q-0.167 0.5-0.233 1t-0.067 1.067q0 0.533 0.067 1.033t0.233 1l-2.867 2.167 1.3 2.267 3.3-1.4q0.733 0.767 1.617 1.283t1.917 0.783l0.433 3.533zM16.067 20.667q1.933 0 3.3-1.367t1.367-3.3-1.367-3.3-3.3-1.367q-1.967 0-3.317 1.367t-1.35 3.3 1.35 3.3 3.317 1.367z"></path>
</symbol>
</defs>
</svg>
